<svg id="图层_1" data-name="图层 1" xmlns="http://www.w3.org/2000/svg" viewBox="0 0 612.28 327.32"><defs><style>.cls-1{fill:#db481f;}.cls-2{fill:none;stroke:#db481f;stroke-miterlimit:10;}.cls-13,.cls-3,.cls-5,.cls-9{font-size:8px;}.cls-3,.cls-5,.cls-9{fill:#575f70;}.cls-10,.cls-11,.cls-12,.cls-13,.cls-3,.cls-4,.cls-6{font-family:AlibabaPuHuiTi-Regular-GBpc-EUC-H, Alibaba PuHuiTi;}.cls-3,.cls-4{letter-spacing:-0.02em;}.cls-4{font-size:10px;fill:#fff;}.cls-5,.cls-9{font-family:AlibabaPuHuiTi-Heavy-GBpc-EUC-H, Alibaba PuHuiTi;}.cls-12,.cls-5,.cls-8{letter-spacing:-0.04em;}.cls-10,.cls-11,.cls-12,.cls-6{fill:#595e71;}.cls-7{letter-spacing:-0.08em;}.cls-10{letter-spacing:-0.04em;}.cls-11{letter-spacing:-0.06em;}.cls-13{fill:#464f5f;}</style></defs><rect class="cls-1" x="267.28" y="97.24" width="70.34" height="32.27" rx="8.04"/><rect class="cls-1" x="331.83" y="169.24" width="70.34" height="32.27" rx="7.27"/><line class="cls-2" x1="335.15" y1="143.5" x2="346.85" y2="156.53"/><polygon class="cls-1" points="334.27 148.06 335.98 144.42 339.78 143.11 331.16 139.06 334.27 148.06"/><polygon class="cls-1" points="342.22 156.91 346.03 155.61 347.73 151.96 350.84 160.97 342.22 156.91"/><line class="cls-2" x1="268.36" y1="142.37" x2="256.66" y2="155.4"/><polygon class="cls-1" points="263.73 141.99 267.54 143.29 269.24 146.93 272.35 137.93 263.73 141.99"/><polygon class="cls-1" points="255.78 150.84 257.48 154.48 261.29 155.78 252.67 159.84 255.78 150.84"/><line class="cls-2" x1="311.35" y1="184.25" x2="293.85" y2="183.54"/><polygon class="cls-1" points="308.69 180.43 310.12 184.2 308.4 187.84 317.32 184.49 308.69 180.43"/><polygon class="cls-1" points="296.81 179.96 295.09 183.59 296.51 187.36 287.89 183.31 296.81 179.96"/><text class="cls-3" transform="translate(284.43 88.1)">目标 What</text><text class="cls-3" transform="translate(359.03 162.91)">方法 How</text><text class="cls-4" transform="translate(273.53 116.02)">研发效能标准</text><text class="cls-4" transform="translate(344.94 188.01)">MARI指南</text><text class="cls-5" transform="translate(411.1 184.93)">实践层：<tspan class="cls-6" x="30.4" y="0">基于MARI方法的指标度量、</tspan><tspan class="cls-6"><tspan x="0" y="9.4">分析、回顾、改进闭环实施指南。</tspan></tspan></text><text class="cls-5" transform="translate(354.63 107)">框架层：<tspan class="cls-6" x="30.4" y="0">覆盖五大认知域、六大实践域、</tspan><tspan class="cls-6"><tspan x="0" y="9.4">数十个过程指标。</tspan></tspan></text><rect class="cls-1" x="204.8" y="169.24" width="70.34" height="32.27" rx="6.26"/><text class="cls-3" transform="translate(208.44 163.26)">工具 <tspan class="cls-7" x="17.32" y="0">T</tspan><tspan x="20.91" y="0">ooIs</tspan></text><text class="cls-4" transform="translate(217.92 188.01)">Dev La<tspan class="cls-8" x="30.59" y="0">k</tspan><tspan x="35.37" y="0">e</tspan></text><text class="cls-9" transform="translate(109.32 181.51)"><tspan class="cls-8">工具层：</tspan><tspan class="cls-6" x="30.4" y="0">自动集成JIRA、</tspan><tspan class="cls-10"><tspan x="0" y="9.4">Gitlab、Jenkins、Merico</tspan></tspan><tspan class="cls-11"><tspan x="0" y="18.8">企业版的开源数据可视化</tspan></tspan><tspan class="cls-12"><tspan x="0" y="28.2">图形面板。</tspan></tspan></text><text class="cls-13" transform="translate(239.15 229.54)">-图：标准、工具及MARI指南关系图-</text></svg>