<svg id="图层_1" data-name="图层 1" xmlns="http://www.w3.org/2000/svg" viewBox="0 0 612.28 327.32"><defs><style>.cls-1,.cls-16,.cls-19,.cls-7,.cls-9{fill:none;}.cls-1{stroke:#c1c8d6;stroke-width:0.49px;}.cls-1,.cls-11,.cls-12,.cls-14,.cls-15,.cls-16,.cls-19,.cls-7,.cls-9{stroke-miterlimit:10;}.cls-2{fill:#596072;}.cls-18,.cls-3{font-size:4.26px;}.cls-3{fill:#fff;}.cls-10,.cls-17,.cls-18,.cls-3,.cls-4,.cls-5,.cls-6{font-family:AlibabaPuHuiTi-Regular-GBpc-EUC-H, Alibaba PuHuiTi;}.cls-4,.cls-5{font-size:5.81px;}.cls-17,.cls-18,.cls-4,.cls-8{fill:#5b6074;}.cls-5,.cls-6{writing-mode:tb;text-orientation:upright;glyph-orientation-vertical:0deg;fill:#666e81;}.cls-5{letter-spacing:0.06em;}.cls-10,.cls-17,.cls-6{font-size:5.04px;}.cls-7{stroke:#757e97;}.cls-11,.cls-12,.cls-14,.cls-15,.cls-7{stroke-width:0.39px;}.cls-9{stroke:#eda999;stroke-width:0.38px;}.cls-10,.cls-13{fill:#eda999;}.cls-11,.cls-12{fill:#e6a596;}.cls-11,.cls-14{stroke:#fff;}.cls-12,.cls-15{stroke:#7e8eaa;}.cls-14,.cls-15{fill:#c6c6c6;}.cls-16{stroke:#575f70;}.cls-19{stroke:#31363c;stroke-width:0.25px;}</style></defs><rect class="cls-1" x="83.65" y="47.03" width="446.32" height="248.51" rx="2.83"/><rect class="cls-1" x="148.29" y="84.19" width="365.59" height="83.22" rx="2.47"/><rect class="cls-1" x="148.27" y="238.85" width="365.59" height="24.33" rx="2.47"/><rect class="cls-1" x="148.27" y="220.1" width="365.59" height="16.74" rx="2.47"/><rect class="cls-2" x="275.56" y="223.9" width="30.35" height="9.14" rx="1.95"/><text class="cls-3" transform="translate(278.15 229.81)">代码提交人数</text><rect class="cls-2" x="173.37" y="119.67" width="132.53" height="9.14" rx="1.95"/><text class="cls-3" transform="translate(226.42 125.8)">需求颗粒度</text><rect class="cls-2" x="173.37" y="86.85" width="274.77" height="9.14" rx="2.15"/><rect class="cls-2" x="173.37" y="97.79" width="274.77" height="9.14" rx="2.15"/><rect class="cls-2" x="173.37" y="108.73" width="274.77" height="9.14" rx="2.15"/><text class="cls-3" transform="translate(298.18 115.13)">需求交付周期</text><text class="cls-3" transform="translate(300.28 104.17)">需求交付率</text><text class="cls-3" transform="translate(300.28 93.04)">需求吞吐量</text><text class="cls-4" transform="translate(112.98 75.02)">软件研发实践域</text><text class="cls-5" transform="translate(110.31 91.42)">效能度量应用于不同认知域</text><text class="cls-6" transform="translate(140.37 115.73)">交付速率</text><text class="cls-6" transform="translate(140.71 183.69)">交付质量</text><text class="cls-6" transform="translate(140.37 218.39)">交付成本</text><text class="cls-6" transform="translate(140.37 241.83)">交付能力</text><line class="cls-7" x1="102.64" y1="69.87" x2="102.64" y2="177.05"/><polygon class="cls-8" points="102.64 179.51 104.13 176.94 101.16 176.94 102.64 179.51"/><rect class="cls-2" x="468.79" y="86.85" width="30.35" height="9.14" rx="1.95"/><text class="cls-3" transform="translate(471.39 92.79)">事故关闭周期</text><rect class="cls-2" x="417.54" y="241.26" width="30.35" height="9.14" rx="1.95"/><rect class="cls-2" x="417.54" y="251.64" width="30.35" height="9.14" rx="1.95"/><text class="cls-3" transform="translate(423.1 257.75)">构建成功率</text><text class="cls-3" transform="translate(424.5 247.29)">构建次数</text><path class="cls-9" d="M181.56,266.54H306.44a2.8,2.8,0,0,1,2.8,2.8V280.8a2.47,2.47,0,0,1-2.47,2.47H181.56a2.47,2.47,0,0,1-2.47-2.47V269A2.47,2.47,0,0,1,181.56,266.54Z"/><path class="cls-9" d="M318.68,266.54H480.25a2.8,2.8,0,0,1,2.8,2.8V280.8a2.47,2.47,0,0,1-2.47,2.47H318.68a2.47,2.47,0,0,1-2.47-2.47V269a2.47,2.47,0,0,1,2.47-2.47Z"/><text class="cls-10" transform="translate(182.96 276.7)">度量视角</text><text class="cls-10" transform="translate(320.14 276.7)">数据来源</text><path class="cls-11" d="M375.94,277.54a.19.19,0,0,1,0,.07c0,.81-7.27,1.47-16.23,1.47s-16.24-.66-16.24-1.47a.13.13,0,0,1,0-.1"/><path class="cls-12" d="M375.87,277.46a.17.17,0,0,1,.07.08"/><polyline class="cls-11" points="343.49 277.61 343.49 271.42 375.96 271.42 375.96 277.61"/><ellipse class="cls-11" cx="359.73" cy="271.42" rx="16.23" ry="1.47"/><text class="cls-3" transform="translate(351.34 277.37)">项目管理</text><rect class="cls-13" x="274.88" y="269.93" width="30.35" height="9.14" rx="1.95"/><text class="cls-3" transform="translate(285.86 276.07)">项目</text><rect class="cls-13" x="240.39" y="269.93" width="30.35" height="9.14" rx="1.95"/><text class="cls-3" transform="translate(251.37 276.07)">团队</text><rect class="cls-13" x="205.9" y="269.93" width="30.35" height="9.14" rx="1.95"/><text class="cls-3" transform="translate(216.88 276.07)">个人</text><path class="cls-11" d="M444.79,277.54a.17.17,0,0,1,0,.07c0,.81-7.27,1.47-16.23,1.47s-16.23-.66-16.23-1.47a.17.17,0,0,1,0-.1"/><path class="cls-11" d="M444.72,277.46l.07.08"/><polyline class="cls-11" points="412.34 277.61 412.34 271.42 444.8 271.42 444.8 277.61"/><ellipse class="cls-11" cx="428.57" cy="271.42" rx="16.23" ry="1.47"/><text class="cls-3" transform="translate(424.38 277.37)">代码</text><path class="cls-14" d="M479.21,277.54a.17.17,0,0,1,0,.07c0,.81-7.26,1.47-16.23,1.47s-16.23-.66-16.23-1.47a.17.17,0,0,1,0-.1"/><path class="cls-15" d="M479.14,277.46s.06.05.07.08"/><polyline class="cls-14" points="446.76 277.61 446.76 271.42 479.23 271.42 479.23 277.61"/><ellipse class="cls-14" cx="462.99" cy="271.42" rx="16.23" ry="1.47"/><text class="cls-3" transform="translate(456.21 277.37)">CI / CD</text><path class="cls-11" d="M410.37,277.54a.17.17,0,0,1,0,.07c0,.81-7.27,1.47-16.23,1.47s-16.24-.66-16.24-1.47a.18.18,0,0,1,0-.1"/><path class="cls-11" d="M410.3,277.46l.07.08"/><polyline class="cls-11" points="377.91 277.61 377.91 271.42 410.38 271.42 410.38 277.61"/><ellipse class="cls-11" cx="394.15" cy="271.42" rx="16.23" ry="1.47"/><rect class="cls-8" x="203.38" y="67.77" width="18.07" height="0.39"/><polygon class="cls-8" points="223.91 67.96 221.34 66.48 221.34 69.44 223.91 67.96"/><rect class="cls-8" x="253.72" y="67.77" width="19.06" height="0.39"/><polygon class="cls-8" points="275.24 67.96 272.67 66.48 272.67 69.44 275.24 67.96"/><rect class="cls-8" x="342.39" y="67.77" width="21.03" height="0.39"/><polygon class="cls-8" points="365.88 67.96 363.32 66.48 363.32 69.44 365.88 67.96"/><rect class="cls-8" x="395.72" y="67.77" width="19.06" height="0.39"/><polygon class="cls-8" points="417.24 67.96 414.68 66.48 414.68 69.44 417.24 67.96"/><rect class="cls-8" x="444.95" y="67.77" width="21.03" height="0.39"/><polygon class="cls-8" points="468.44 67.96 465.87 66.48 465.87 69.44 468.44 67.96"/><text class="cls-3" transform="translate(383.55 277.37)">Git Activity</text><rect class="cls-2" x="366.29" y="132.28" width="30.35" height="9.14" rx="1.95"/><text class="cls-3" transform="translate(368.89 138.6)">故障关闭周期</text><rect class="cls-2" x="313.53" y="132.28" width="30.35" height="9.14" rx="1.95"/><text class="cls-3" transform="translate(316.13 138.6)">代码评审时长</text><rect class="cls-2" x="275.56" y="132.28" width="30.35" height="9.14" rx="1.95"/><text class="cls-3" transform="translate(278.15 138.6)">代码提交次数</text><rect class="cls-2" x="275.56" y="143.38" width="30.35" height="9.14" rx="1.95"/><text class="cls-3" transform="translate(282.34 149.35)">代码当量</text><rect class="cls-2" x="275.56" y="154.48" width="30.35" height="9.14" rx="1.95"/><text class="cls-3" transform="translate(282.34 160.62)">代码行数</text><rect class="cls-1" x="148.27" y="169.42" width="365.59" height="48.69" rx="2.47"/><rect class="cls-2" x="468.79" y="172.39" width="30.35" height="9.14" rx="1.95"/><text class="cls-3" transform="translate(473.48 178.78)">线上缺陷数</text><rect class="cls-2" x="468.79" y="183.43" width="30.35" height="9.14" rx="1.95"/><text class="cls-3" transform="translate(473.48 189.55)">线上缺陷率</text><rect class="cls-2" x="313.53" y="205.74" width="30.35" height="9.14" rx="1.95"/><text class="cls-3" transform="translate(316.13 211.86)">代码评审轮数</text><rect class="cls-2" x="313.53" y="194.47" width="30.35" height="9.14" rx="1.95"/><text class="cls-3" transform="translate(316.13 200.53)">代码评审人数</text><rect class="cls-2" x="313.53" y="183.43" width="30.35" height="9.14" rx="1.95"/><text class="cls-3" transform="translate(314.03 189.89)">合并评审通过率</text><rect class="cls-2" x="313.53" y="172.39" width="30.35" height="9.14" rx="1.95"/><text class="cls-3" transform="translate(316.13 178.6)">代码合并个数</text><rect class="cls-2" x="366.29" y="172.39" width="30.35" height="9.14" rx="1.95"/><text class="cls-3" transform="translate(370.98 178.6)">测试缺陷数</text><rect class="cls-2" x="366.29" y="183.43" width="30.35" height="9.14" rx="1.95"/><text class="cls-3" transform="translate(370.98 189.73)">测试缺陷率</text><circle class="cls-2" cx="102.64" cy="67.96" r="3.59"/><rect class="cls-8" x="104.66" y="67.77" width="65.76" height="0.39"/><polygon class="cls-8" points="172.88 67.96 170.31 66.48 170.31 69.44 172.88 67.96"/><path class="cls-16" d="M176,59.31h25.1A2.92,2.92,0,0,1,204,62.23V74a2.59,2.59,0,0,1-2.59,2.59H176A2.59,2.59,0,0,1,173.37,74V61.89A2.59,2.59,0,0,1,176,59.31Z"/><text class="cls-17" transform="translate(183.72 69.82)">需求</text><path class="cls-16" d="M227.05,59.31h25.1a2.92,2.92,0,0,1,2.92,2.92V74a2.59,2.59,0,0,1-2.59,2.59H227.05A2.59,2.59,0,0,1,224.46,74V61.89A2.59,2.59,0,0,1,227.05,59.31Z"/><text class="cls-17" transform="translate(234.81 69.82)">设计</text><path class="cls-16" d="M368.88,59.31H394a2.92,2.92,0,0,1,2.92,2.92V74a2.59,2.59,0,0,1-2.59,2.59H368.88A2.59,2.59,0,0,1,366.29,74V61.89A2.59,2.59,0,0,1,368.88,59.31Z"/><text class="cls-17" transform="translate(376.64 69.82)">测试</text><path class="cls-16" d="M420.13,59.31h25.1a2.92,2.92,0,0,1,2.92,2.92V74a2.59,2.59,0,0,1-2.59,2.59H420.13A2.59,2.59,0,0,1,417.54,74V61.89A2.59,2.59,0,0,1,420.13,59.31Z"/><text class="cls-17" transform="translate(427.89 69.79)">发布</text><path class="cls-16" d="M471.38,59.31h25.1a2.92,2.92,0,0,1,2.92,2.92V74a2.59,2.59,0,0,1-2.59,2.59H471.38A2.59,2.59,0,0,1,468.79,74V61.89A2.59,2.59,0,0,1,471.38,59.31Z"/><text class="cls-17" transform="translate(479.14 69.79)">运营</text><path class="cls-16" d="M278.21,59.31H341a2.92,2.92,0,0,1,2.92,2.92V74a2.59,2.59,0,0,1-2.59,2.59H278.21A2.59,2.59,0,0,1,275.62,74V61.89A2.59,2.59,0,0,1,278.21,59.31Z"/><text class="cls-17" transform="translate(304.8 64.99)">开发</text><text class="cls-18" transform="translate(288.85 73.79)">编码</text><text class="cls-18" transform="translate(322.15 73.79)">评审</text><line class="cls-19" x1="275.56" y1="67.96" x2="343.88" y2="67.96"/><line class="cls-19" x1="309.11" y1="67.88" x2="309.11" y2="76.64"/></svg>