<svg id="图层_1" data-name="图层 1" xmlns="http://www.w3.org/2000/svg" viewBox="0 0 612.28 327.32"><defs><style>.cls-1,.cls-10,.cls-4{fill:#464f5f;}.cls-2{fill:#db481f;}.cls-3,.cls-5{fill:#596072;}.cls-10,.cls-4{font-size:8px;font-family:AlibabaPuHuiTi-Regular-GBpc-EUC-H, Alibaba PuHuiTi;}.cls-4,.cls-5,.cls-8{letter-spacing:-0.02em;}.cls-5,.cls-8{font-size:12px;font-family:AlibabaPuHuiTi-Heavy-GBpc-EUC-H, Alibaba PuHuiTi;}.cls-6{fill:none;stroke:#de471f;stroke-miterlimit:10;}.cls-7{fill:#de471f;}.cls-8,.cls-9{fill:#fff;}</style></defs><polygon class="cls-1" points="256.75 245.42 116.14 245.42 141.26 225.65 245.64 225.65 256.75 245.42"/><path class="cls-2" d="M184.37,187.91V142.48a46.26,46.26,0,0,0-45.43,45.43Z"/><path class="cls-3" d="M186.07,187.91H231.5a46.26,46.26,0,0,0-45.43-45.43Z"/><path class="cls-2" d="M186.07,189.61V235a46.26,46.26,0,0,0,45.43-45.43Z"/><path class="cls-3" d="M184.37,189.61H138.94A46.26,46.26,0,0,0,184.37,235Z"/><polygon class="cls-1" points="379.86 212.67 263.53 212.1 264.37 192.9 368.74 192.9 379.86 212.67"/><path class="cls-2" d="M307.48,155.16V109.72A46.29,46.29,0,0,0,262,155.16Z"/><path class="cls-3" d="M309.17,155.16h45.44a46.29,46.29,0,0,0-45.44-45.44Z"/><path class="cls-2" d="M309.17,156.85v45.44a46.29,46.29,0,0,0,45.44-45.44Z"/><path class="cls-3" d="M307.48,156.85H262a46.29,46.29,0,0,0,45.44,45.44Z"/><polyline class="cls-1" points="245.64 225.65 264.37 192.9 263.53 212.1 256.75 245.42"/><polygon class="cls-1" points="502.83 180.04 386.5 179.48 387.35 160.28 491.72 160.28 502.83 180.04"/><polyline class="cls-1" points="368.61 193.03 387.35 160.28 386.5 179.48 379.73 212.79"/><text class="cls-4" transform="translate(162.38 265.03)">原有水平</text><text class="cls-4" transform="translate(426.42 198.43)">新的水平</text><text class="cls-5" transform="translate(235.66 73.38)">构建闭环，持续改进</text><path class="cls-6" d="M151.15,127.4s20.91-14.36,35.13-12.31"/><polygon class="cls-7" points="183.12 119.54 192.94 117.8 186.52 110.16 183.12 119.54"/><path class="cls-6" d="M278.77,103.11s20.92-14.35,35.14-12.3"/><polygon class="cls-7" points="310.74 95.26 320.56 93.51 314.14 85.88 310.74 95.26"/><text class="cls-8" transform="translate(164.16 177.1)"><tspan xml:space="preserve">M         A</tspan><tspan x="4.09" y="31.4" xml:space="preserve">I         R</tspan></text><text class="cls-8" transform="translate(284.27 145.04)"><tspan xml:space="preserve">M         A</tspan><tspan x="4.09" y="31.4" xml:space="preserve">I         R</tspan></text><path class="cls-9" d="M175.65,184.12a10.07,10.07,0,0,1,13-5.9,10.39,10.39,0,0,1,7,8.15h.61a10.94,10.94,0,0,0-7.44-9.14c-5.68-1.95-11.78.83-13.63,6.21a9.67,9.67,0,0,0-.52,2.93h.56A9.4,9.4,0,0,1,175.65,184.12Z"/><path class="cls-9" d="M175.65,193.17c1.75,5.11,7.55,7.75,13,5.9a10.41,10.41,0,0,0,7-8.15h.61a10.92,10.92,0,0,1-7.44,9.13c-5.68,1.95-11.78-.82-13.63-6.2a9.67,9.67,0,0,1-.52-2.93h.56A9.4,9.4,0,0,0,175.65,193.17Z"/><path class="cls-9" d="M299.13,151.37a10.07,10.07,0,0,1,13-5.9,10.38,10.38,0,0,1,7,8.15h.61a10.91,10.91,0,0,0-7.44-9.14c-5.68-1.95-11.78.83-13.63,6.2a10.05,10.05,0,0,0-.52,2.94h.57A8.92,8.92,0,0,1,299.13,151.37Z"/><path class="cls-9" d="M299.13,160.42c1.75,5.11,7.56,7.75,13,5.9a10.4,10.4,0,0,0,7-8.16h.61a10.9,10.9,0,0,1-7.44,9.14c-5.68,1.95-11.78-.83-13.63-6.2a10.05,10.05,0,0,1-.52-2.94h.57A9,9,0,0,0,299.13,160.42Z"/><text class="cls-10" transform="translate(237.74 288.54)">-图：MARI方法的持续改进-</text></svg>