<svg xmlns="http://www.w3.org/2000/svg" viewBox="0 0 612.28 327.32"><defs><style>.cls-1{isolation:isolate;}.cls-2,.cls-43{font-size:8px;}.cls-2,.cls-39,.cls-42{fill:#db481f;}.cls-13,.cls-2,.cls-38,.cls-40,.cls-43{font-family:AlibabaPuHuiTi-Regular-GBpc-EUC-H, Alibaba PuHuiTi;}.cls-2{letter-spacing:-0.02em;}.cls-3,.cls-4,.cls-6,.cls-7{fill:#595e71;}.cls-10,.cls-3,.cls-5{letter-spacing:-0.02em;}.cls-11,.cls-4{letter-spacing:-0.04em;}.cls-7{letter-spacing:-0.04em;}.cls-8{letter-spacing:-0.04em;}.cls-10,.cls-11,.cls-12,.cls-41,.cls-9{fill:#596072;}.cls-12{letter-spacing:-0.03em;}.cls-13,.cls-40{font-size:6.75px;}.cls-13{fill:#231815;}.cls-14{fill:none;stroke:#575f70;stroke-miterlimit:10;stroke-width:0.5px;}.cls-15{opacity:0.1;mix-blend-mode:multiply;}.cls-16,.cls-38{fill:#fff;}.cls-17{fill:#f1f0ef;}.cls-18{fill:#e1dfdd;}.cls-19{fill:#d2cecb;}.cls-20{fill:#c3bebb;}.cls-21{fill:#b5afab;}.cls-22{fill:#a7a09b;}.cls-23{fill:#99928d;}.cls-24{fill:#8c847f;}.cls-25{fill:#7f7771;}.cls-26{fill:#736a65;}.cls-27{fill:#675e59;}.cls-28{fill:#5b534e;}.cls-29{fill:#504944;}.cls-30{fill:#453f3a;}.cls-31{fill:#3b3532;}.cls-32{fill:#312c29;}.cls-33{fill:#272421;}.cls-34{fill:#1d1b19;}.cls-35{fill:#141312;}.cls-36{fill:#0a0a09;}.cls-37{fill:#040000;}.cls-38{font-size:15.19px;}.cls-39{font-size:9.28px;font-family:AlibabaPuHuiTi-Heavy-GBpc-EUC-H, Alibaba PuHuiTi;}.cls-40,.cls-43{fill:#464f5f;}.cls-41{letter-spacing:0em;}</style></defs><g class="cls-1"><g id="图层_1" data-name="图层 1"><text class="cls-2" transform="translate(160.28 91.4)"><tspan xml:space="preserve"> M</tspan><tspan class="cls-3" x="8.38" y="0">easu</tspan><tspan class="cls-4" x="25.99" y="0">r</tspan><tspan class="cls-3" x="28.71" y="0" xml:space="preserve">e：度量    </tspan><tspan class="cls-5" x="63.9" y="0">A</tspan><tspan class="cls-6" x="69.07" y="0">na</tspan><tspan class="cls-7" x="78.59" y="0">l</tspan><tspan class="cls-3" x="80.57" y="0" xml:space="preserve">yze：分析  </tspan><tspan class="cls-8" x="119.9" y="0">R</tspan><tspan class="cls-9" x="124.49" y="0">eview</tspan><tspan class="cls-3" x="145.92" y="0" xml:space="preserve">：回顾   </tspan><tspan class="cls-9" x="174.74" y="0"> </tspan><tspan x="176.64" y="0">I</tspan><tspan class="cls-10" x="178.67" y="0">mp</tspan><tspan class="cls-11" x="190.8" y="0">r</tspan><tspan class="cls-12" x="193.52" y="0">ov</tspan><tspan class="cls-10" x="202.19" y="0">e</tspan><tspan class="cls-3" x="206.65" y="0">：改进</tspan></text><text class="cls-13" transform="translate(143.04 229.98)">措施具体可落地<tspan x="0" y="8.1">小步提升有目标</tspan></text><polyline class="cls-14" points="234.57 129.83 166.57 129.83 142.34 110.3"/><polyline class="cls-14" points="235.21 203.18 168.41 203.18 144.61 183.65"/><g class="cls-15"><path class="cls-16" d="M273.55,155.16a16.39,16.39,0,0,0,16.37-16.22,16.58,16.58,0,0,0-16.74-16.51A56.51,56.51,0,0,0,218.85,165a.31.31,0,0,0,.52.29A19.57,19.57,0,0,1,251,170.11a.28.28,0,0,0,.52,0A23.71,23.71,0,0,1,273.55,155.16Z"/><path class="cls-16" d="M273.55,202.53a16.39,16.39,0,0,0-16.37,16.23,16.59,16.59,0,0,0,16.75,16.51,56.52,56.52,0,0,0,54.33-42.58.31.31,0,0,0-.52-.29,19.57,19.57,0,0,1-31.64-4.77.31.31,0,0,0-.56,0A23.71,23.71,0,0,1,273.55,202.53Z"/><path class="cls-16" d="M249.87,178.85a16.39,16.39,0,0,0-16.23-16.37,16.58,16.58,0,0,0-16.51,16.74,56.54,56.54,0,0,0,42.79,54.39.25.25,0,0,0,.23-.43,19.58,19.58,0,0,1,4.62-31.79.3.3,0,0,0,0-.55A23.73,23.73,0,0,1,249.87,178.85Z"/><path class="cls-16" d="M297.24,178.85a16.39,16.39,0,0,0,16.22,16.37A16.59,16.59,0,0,0,330,178.47a56.53,56.53,0,0,0-42.57-54.33.31.31,0,0,0-.3.52,19.57,19.57,0,0,1-4.77,31.64.31.31,0,0,0,0,.56A23.73,23.73,0,0,1,297.24,178.85Z"/><path class="cls-17" d="M273,154.57a16.39,16.39,0,0,0,16.37-16.23,16.58,16.58,0,0,0-16.74-16.51,56.52,56.52,0,0,0-54.33,42.58.31.31,0,0,0,.52.29,19.57,19.57,0,0,1,31.66,4.81.28.28,0,0,0,.52,0A23.73,23.73,0,0,1,273,154.57Z"/><path class="cls-17" d="M273,201.94a16.38,16.38,0,0,0-16.36,16.22,16.58,16.58,0,0,0,16.74,16.51,56.53,56.53,0,0,0,54.33-42.57.31.31,0,0,0-.52-.3A19.57,19.57,0,0,1,295.5,187a.31.31,0,0,0-.56,0A23.72,23.72,0,0,1,273,201.94Z"/><path class="cls-17" d="M249.27,178.25A16.39,16.39,0,0,0,233,161.88a16.59,16.59,0,0,0-16.51,16.75A56.53,56.53,0,0,0,259.32,233a.25.25,0,0,0,.23-.43,19.58,19.58,0,0,1,4.62-31.78.31.31,0,0,0,0-.56A23.73,23.73,0,0,1,249.27,178.25Z"/><path class="cls-17" d="M296.64,178.25a16.39,16.39,0,0,0,16.23,16.37,16.59,16.59,0,0,0,16.51-16.74,56.52,56.52,0,0,0-42.58-54.33.31.31,0,0,0-.29.52,19.58,19.58,0,0,1-4.77,31.64.3.3,0,0,0,0,.55A23.73,23.73,0,0,1,296.64,178.25Z"/><path class="cls-18" d="M272.36,154a16.39,16.39,0,0,0,16.37-16.23A16.6,16.6,0,0,0,272,121.23a56.54,56.54,0,0,0-54.33,42.58.31.31,0,0,0,.52.29,19.57,19.57,0,0,1,31.66,4.82.29.29,0,0,0,.52,0A23.73,23.73,0,0,1,272.36,154Z"/><path class="cls-18" d="M272.36,201.34A16.39,16.39,0,0,0,256,217.57a16.59,16.59,0,0,0,16.74,16.51,56.54,56.54,0,0,0,54.33-42.58.31.31,0,0,0-.52-.29,19.58,19.58,0,0,1-31.64-4.78.3.3,0,0,0-.55,0A23.74,23.74,0,0,1,272.36,201.34Z"/><path class="cls-18" d="M248.67,177.65a16.38,16.38,0,0,0-16.22-16.36A16.58,16.58,0,0,0,215.94,178a56.51,56.51,0,0,0,42.78,54.38A.25.25,0,0,0,259,232a19.58,19.58,0,0,1,4.63-31.78.31.31,0,0,0,0-.56A23.73,23.73,0,0,1,248.67,177.65Z"/><path class="cls-18" d="M296,177.65A16.39,16.39,0,0,0,312.27,194a16.58,16.58,0,0,0,16.51-16.74A56.52,56.52,0,0,0,286.2,123a.31.31,0,0,0-.29.52,19.57,19.57,0,0,1-4.77,31.64.31.31,0,0,0,0,.56A23.71,23.71,0,0,1,296,177.65Z"/><path class="cls-19" d="M271.76,153.37a16.39,16.39,0,0,0,16.37-16.22,16.59,16.59,0,0,0-16.75-16.52,56.55,56.55,0,0,0-54.33,42.58.31.31,0,0,0,.52.29,19.59,19.59,0,0,1,31.67,4.82.28.28,0,0,0,.51,0A23.73,23.73,0,0,1,271.76,153.37Z"/><path class="cls-19" d="M271.76,200.74A16.39,16.39,0,0,0,255.39,217a16.59,16.59,0,0,0,16.75,16.51,56.52,56.52,0,0,0,54.33-42.58.31.31,0,0,0-.52-.29,19.58,19.58,0,0,1-31.65-4.77.3.3,0,0,0-.55,0A23.73,23.73,0,0,1,271.76,200.74Z"/><path class="cls-19" d="M248.08,177.06a16.39,16.39,0,0,0-16.23-16.37,16.58,16.58,0,0,0-16.51,16.74,56.51,56.51,0,0,0,42.78,54.38.25.25,0,0,0,.24-.43A19.57,19.57,0,0,1,263,199.6a.3.3,0,0,0,0-.55A23.72,23.72,0,0,1,248.08,177.06Z"/><path class="cls-19" d="M295.44,177.06a16.39,16.39,0,0,0,16.23,16.37,16.59,16.59,0,0,0,16.51-16.75,56.53,56.53,0,0,0-42.57-54.33.31.31,0,0,0-.3.52,19.57,19.57,0,0,1-4.77,31.64.31.31,0,0,0,0,.56A23.71,23.71,0,0,1,295.44,177.06Z"/><path class="cls-20" d="M271.16,152.77a16.39,16.39,0,0,0,16.37-16.22A16.58,16.58,0,0,0,270.79,120a56.51,56.51,0,0,0-54.33,42.58.31.31,0,0,0,.52.29,19.57,19.57,0,0,1,31.66,4.81.28.28,0,0,0,.52,0A23.72,23.72,0,0,1,271.16,152.77Z"/><path class="cls-20" d="M271.16,200.14a16.39,16.39,0,0,0-16.37,16.23,16.59,16.59,0,0,0,16.75,16.51,56.52,56.52,0,0,0,54.33-42.58.31.31,0,0,0-.52-.29,19.57,19.57,0,0,1-31.64-4.77.31.31,0,0,0-.56,0A23.71,23.71,0,0,1,271.16,200.14Z"/><path class="cls-20" d="M247.48,176.46a16.39,16.39,0,0,0-16.23-16.37,16.58,16.58,0,0,0-16.51,16.74,56.54,56.54,0,0,0,42.79,54.39.25.25,0,0,0,.23-.43A19.58,19.58,0,0,1,262.38,199a.3.3,0,0,0,0-.55A23.73,23.73,0,0,1,247.48,176.46Z"/><path class="cls-20" d="M294.85,176.46a16.39,16.39,0,0,0,16.22,16.37,16.59,16.59,0,0,0,16.51-16.75A56.53,56.53,0,0,0,285,121.75a.31.31,0,0,0-.3.52,19.57,19.57,0,0,1-4.77,31.64.31.31,0,0,0,0,.56A23.73,23.73,0,0,1,294.85,176.46Z"/><path class="cls-21" d="M270.56,152.18A16.39,16.39,0,0,0,286.93,136a16.58,16.58,0,0,0-16.74-16.51A56.52,56.52,0,0,0,215.86,162a.31.31,0,0,0,.52.29A19.57,19.57,0,0,1,248,167.13a.29.29,0,0,0,.52,0A23.73,23.73,0,0,1,270.56,152.18Z"/><path class="cls-21" d="M270.56,199.55a16.38,16.38,0,0,0-16.36,16.22,16.58,16.58,0,0,0,16.74,16.51,56.53,56.53,0,0,0,54.33-42.57.31.31,0,0,0-.52-.3,19.57,19.57,0,0,1-31.64-4.77.31.31,0,0,0-.56,0A23.72,23.72,0,0,1,270.56,199.55Z"/><path class="cls-21" d="M246.88,175.86a16.39,16.39,0,0,0-16.23-16.37,16.59,16.59,0,0,0-16.51,16.75,56.53,56.53,0,0,0,42.79,54.38.25.25,0,0,0,.23-.43,19.58,19.58,0,0,1,4.62-31.78.31.31,0,0,0,0-.56A23.73,23.73,0,0,1,246.88,175.86Z"/><path class="cls-21" d="M294.25,175.86a16.39,16.39,0,0,0,16.23,16.37A16.59,16.59,0,0,0,327,175.49a56.51,56.51,0,0,0-42.58-54.33.31.31,0,0,0-.29.52,19.58,19.58,0,0,1-4.77,31.64.3.3,0,0,0,0,.55A23.74,23.74,0,0,1,294.25,175.86Z"/><path class="cls-22" d="M270,151.58a16.39,16.39,0,0,0,16.37-16.23,16.59,16.59,0,0,0-16.75-16.51,56.54,56.54,0,0,0-54.33,42.58.31.31,0,0,0,.52.29,19.58,19.58,0,0,1,31.66,4.82.29.29,0,0,0,.52,0A23.73,23.73,0,0,1,270,151.58Z"/><path class="cls-22" d="M270,199a16.39,16.39,0,0,0-16.37,16.23,16.59,16.59,0,0,0,16.74,16.51,56.54,56.54,0,0,0,54.33-42.58.31.31,0,0,0-.52-.29A19.58,19.58,0,0,1,292.51,184a.3.3,0,0,0-.55,0A23.74,23.74,0,0,1,270,199Z"/><path class="cls-22" d="M246.28,175.26a16.38,16.38,0,0,0-16.22-16.36,16.58,16.58,0,0,0-16.51,16.74A56.51,56.51,0,0,0,256.33,230a.25.25,0,0,0,.23-.43,19.58,19.58,0,0,1,4.63-31.78.31.31,0,0,0,0-.56A23.73,23.73,0,0,1,246.28,175.26Z"/><path class="cls-22" d="M293.65,175.26a16.39,16.39,0,0,0,16.23,16.37,16.58,16.58,0,0,0,16.51-16.74,56.52,56.52,0,0,0-42.58-54.33.31.31,0,0,0-.29.52,19.57,19.57,0,0,1-4.77,31.64.31.31,0,0,0,0,.56A23.71,23.71,0,0,1,293.65,175.26Z"/><path class="cls-23" d="M269.37,151a16.39,16.39,0,0,0,16.37-16.22A16.58,16.58,0,0,0,269,118.25a56.53,56.53,0,0,0-54.34,42.57.31.31,0,0,0,.52.3,19.58,19.58,0,0,1,31.67,4.81.28.28,0,0,0,.51,0A23.73,23.73,0,0,1,269.37,151Z"/><path class="cls-23" d="M269.37,198.35A16.39,16.39,0,0,0,253,214.58a16.59,16.59,0,0,0,16.75,16.51,56.52,56.52,0,0,0,54.33-42.58.31.31,0,0,0-.52-.29,19.57,19.57,0,0,1-31.64-4.77.31.31,0,0,0-.56,0A23.73,23.73,0,0,1,269.37,198.35Z"/><path class="cls-23" d="M245.69,174.67a16.39,16.39,0,0,0-16.23-16.37A16.58,16.58,0,0,0,213,175a56.51,56.51,0,0,0,42.78,54.38A.25.25,0,0,0,256,229a19.57,19.57,0,0,1,4.62-31.78.3.3,0,0,0,0-.55A23.72,23.72,0,0,1,245.69,174.67Z"/><path class="cls-23" d="M293.05,174.67A16.39,16.39,0,0,0,309.28,191a16.59,16.59,0,0,0,16.51-16.75A56.53,56.53,0,0,0,283.22,120a.31.31,0,0,0-.3.52,19.57,19.57,0,0,1-4.77,31.64.31.31,0,0,0,0,.56A23.71,23.71,0,0,1,293.05,174.67Z"/><path class="cls-24" d="M268.77,150.39a16.39,16.39,0,0,0,16.37-16.23,16.58,16.58,0,0,0-16.74-16.51,56.51,56.51,0,0,0-54.33,42.58.31.31,0,0,0,.52.29,19.57,19.57,0,0,1,31.66,4.81.28.28,0,0,0,.52,0A23.71,23.71,0,0,1,268.77,150.39Z"/><path class="cls-24" d="M268.77,197.75A16.39,16.39,0,0,0,252.4,214a16.59,16.59,0,0,0,16.75,16.51,56.52,56.52,0,0,0,54.33-42.58.31.31,0,0,0-.52-.29,19.57,19.57,0,0,1-31.64-4.77.31.31,0,0,0-.56,0A23.71,23.71,0,0,1,268.77,197.75Z"/><path class="cls-24" d="M245.09,174.07a16.39,16.39,0,0,0-16.23-16.37,16.58,16.58,0,0,0-16.51,16.74,56.54,56.54,0,0,0,42.79,54.39.25.25,0,0,0,.23-.43A19.58,19.58,0,0,1,260,196.61a.3.3,0,0,0,0-.55A23.73,23.73,0,0,1,245.09,174.07Z"/><path class="cls-24" d="M292.46,174.07a16.39,16.39,0,0,0,16.22,16.37,16.59,16.59,0,0,0,16.51-16.75,56.53,56.53,0,0,0-42.57-54.33.31.31,0,0,0-.3.52,19.57,19.57,0,0,1-4.77,31.64.31.31,0,0,0,0,.56A23.73,23.73,0,0,1,292.46,174.07Z"/><path class="cls-25" d="M268.18,149.79a16.38,16.38,0,0,0,16.36-16.23,16.58,16.58,0,0,0-16.74-16.51,56.52,56.52,0,0,0-54.33,42.58.31.31,0,0,0,.52.29,19.57,19.57,0,0,1,31.66,4.82.29.29,0,0,0,.52,0A23.73,23.73,0,0,1,268.18,149.79Z"/><path class="cls-25" d="M268.18,197.16a16.38,16.38,0,0,0-16.37,16.22,16.58,16.58,0,0,0,16.74,16.51,56.53,56.53,0,0,0,54.33-42.57.31.31,0,0,0-.52-.3,19.57,19.57,0,0,1-31.64-4.77.31.31,0,0,0-.56,0A23.71,23.71,0,0,1,268.18,197.16Z"/><path class="cls-25" d="M244.49,173.47a16.39,16.39,0,0,0-16.23-16.37,16.59,16.59,0,0,0-16.51,16.75,56.55,56.55,0,0,0,42.79,54.38.25.25,0,0,0,.23-.43A19.58,19.58,0,0,1,259.39,196a.31.31,0,0,0,0-.56A23.73,23.73,0,0,1,244.49,173.47Z"/><path class="cls-25" d="M291.86,173.47a16.39,16.39,0,0,0,16.23,16.37A16.59,16.59,0,0,0,324.6,173.1,56.52,56.52,0,0,0,282,118.77a.31.31,0,0,0-.29.52A19.58,19.58,0,0,1,277,150.93a.3.3,0,0,0,0,.55A23.74,23.74,0,0,1,291.86,173.47Z"/><path class="cls-26" d="M267.58,149.19A16.39,16.39,0,0,0,284,133a16.59,16.59,0,0,0-16.75-16.51A56.54,56.54,0,0,0,212.87,159a.31.31,0,0,0,.52.29,19.58,19.58,0,0,1,31.66,4.82.29.29,0,0,0,.52,0A23.73,23.73,0,0,1,267.58,149.19Z"/><path class="cls-26" d="M267.58,196.56a16.39,16.39,0,0,0-16.37,16.23A16.59,16.59,0,0,0,268,229.3a56.53,56.53,0,0,0,54.33-42.58.31.31,0,0,0-.52-.29,19.58,19.58,0,0,1-31.64-4.78.3.3,0,0,0-.55,0A23.74,23.74,0,0,1,267.58,196.56Z"/><path class="cls-26" d="M243.89,172.87a16.38,16.38,0,0,0-16.22-16.36,16.58,16.58,0,0,0-16.51,16.74,56.51,56.51,0,0,0,42.78,54.38.25.25,0,0,0,.23-.43,19.58,19.58,0,0,1,4.63-31.78.31.31,0,0,0,0-.56A23.73,23.73,0,0,1,243.89,172.87Z"/><path class="cls-26" d="M291.26,172.87a16.39,16.39,0,0,0,16.23,16.37A16.58,16.58,0,0,0,324,172.5a56.52,56.52,0,0,0-42.58-54.33.31.31,0,0,0-.29.52,19.57,19.57,0,0,1-4.77,31.64.31.31,0,0,0,0,.56A23.71,23.71,0,0,1,291.26,172.87Z"/><path class="cls-27" d="M267,148.59a16.39,16.39,0,0,0,16.37-16.22,16.58,16.58,0,0,0-16.74-16.51,56.53,56.53,0,0,0-54.34,42.57.31.31,0,0,0,.52.3,19.58,19.58,0,0,1,31.67,4.81.28.28,0,0,0,.51,0A23.73,23.73,0,0,1,267,148.59Z"/><path class="cls-27" d="M267,196a16.39,16.39,0,0,0-16.37,16.23,16.59,16.59,0,0,0,16.75,16.51,56.52,56.52,0,0,0,54.33-42.58.31.31,0,0,0-.52-.29,19.57,19.57,0,0,1-31.64-4.77.31.31,0,0,0-.56,0A23.73,23.73,0,0,1,267,196Z"/><path class="cls-27" d="M243.3,172.28a16.39,16.39,0,0,0-16.23-16.37,16.58,16.58,0,0,0-16.51,16.74A56.51,56.51,0,0,0,253.34,227a.25.25,0,0,0,.24-.43,19.57,19.57,0,0,1,4.62-31.78.3.3,0,0,0,0-.55A23.72,23.72,0,0,1,243.3,172.28Z"/><path class="cls-27" d="M290.66,172.28a16.39,16.39,0,0,0,16.23,16.37A16.59,16.59,0,0,0,323.4,171.9a56.53,56.53,0,0,0-42.57-54.33.31.31,0,0,0-.3.52,19.57,19.57,0,0,1-4.77,31.64.31.31,0,0,0,0,.56A23.71,23.71,0,0,1,290.66,172.28Z"/><path class="cls-28" d="M266.38,148a16.39,16.39,0,0,0,16.37-16.23A16.58,16.58,0,0,0,266,115.26a56.51,56.51,0,0,0-54.33,42.58.31.31,0,0,0,.52.29,19.57,19.57,0,0,1,31.66,4.81.28.28,0,0,0,.52,0A23.71,23.71,0,0,1,266.38,148Z"/><path class="cls-28" d="M266.38,195.36A16.39,16.39,0,0,0,250,211.59a16.59,16.59,0,0,0,16.75,16.51,56.52,56.52,0,0,0,54.33-42.58.31.31,0,0,0-.52-.29,19.57,19.57,0,0,1-31.64-4.77.31.31,0,0,0-.56,0A23.71,23.71,0,0,1,266.38,195.36Z"/><path class="cls-28" d="M242.7,171.68a16.39,16.39,0,0,0-16.23-16.37A16.59,16.59,0,0,0,210,172.06a56.53,56.53,0,0,0,42.79,54.38A.25.25,0,0,0,253,226a19.57,19.57,0,0,1,4.62-31.78.31.31,0,0,0,0-.56A23.73,23.73,0,0,1,242.7,171.68Z"/><path class="cls-28" d="M290.07,171.68a16.39,16.39,0,0,0,16.22,16.37,16.59,16.59,0,0,0,16.52-16.75A56.55,56.55,0,0,0,280.23,117a.31.31,0,0,0-.3.52,19.57,19.57,0,0,1-4.77,31.64.31.31,0,0,0,0,.56A23.73,23.73,0,0,1,290.07,171.68Z"/><path class="cls-29" d="M265.79,147.4a16.38,16.38,0,0,0,16.36-16.23,16.58,16.58,0,0,0-16.74-16.51,56.52,56.52,0,0,0-54.33,42.58.31.31,0,0,0,.52.29,19.57,19.57,0,0,1,31.66,4.82.29.29,0,0,0,.52,0A23.73,23.73,0,0,1,265.79,147.4Z"/><path class="cls-29" d="M265.79,194.77A16.38,16.38,0,0,0,249.42,211a16.58,16.58,0,0,0,16.74,16.51,56.53,56.53,0,0,0,54.33-42.57.31.31,0,0,0-.52-.3,19.57,19.57,0,0,1-31.64-4.77.31.31,0,0,0-.56,0A23.71,23.71,0,0,1,265.79,194.77Z"/><path class="cls-29" d="M242.1,171.08a16.39,16.39,0,0,0-16.23-16.37,16.6,16.6,0,0,0-16.51,16.75,56.55,56.55,0,0,0,42.79,54.38.25.25,0,0,0,.23-.43A19.58,19.58,0,0,1,257,193.63a.31.31,0,0,0,0-.56A23.73,23.73,0,0,1,242.1,171.08Z"/><path class="cls-29" d="M289.47,171.08a16.39,16.39,0,0,0,16.23,16.37,16.59,16.59,0,0,0,16.51-16.74,56.52,56.52,0,0,0-42.58-54.33.31.31,0,0,0-.29.52,19.58,19.58,0,0,1-4.77,31.64.3.3,0,0,0,0,.55A23.74,23.74,0,0,1,289.47,171.08Z"/><path class="cls-30" d="M265.19,146.8a16.39,16.39,0,0,0,16.37-16.23,16.59,16.59,0,0,0-16.75-16.51,56.54,56.54,0,0,0-54.33,42.58.31.31,0,0,0,.52.29,19.59,19.59,0,0,1,31.67,4.82.28.28,0,0,0,.51,0A23.73,23.73,0,0,1,265.19,146.8Z"/><path class="cls-30" d="M265.19,194.17a16.39,16.39,0,0,0-16.37,16.23,16.59,16.59,0,0,0,16.74,16.51,56.53,56.53,0,0,0,54.33-42.58.31.31,0,0,0-.52-.29,19.58,19.58,0,0,1-31.64-4.78.3.3,0,0,0-.55,0A23.74,23.74,0,0,1,265.19,194.17Z"/><path class="cls-30" d="M241.5,170.49a16.38,16.38,0,0,0-16.22-16.37,16.58,16.58,0,0,0-16.51,16.74,56.51,56.51,0,0,0,42.78,54.38.25.25,0,0,0,.23-.43A19.58,19.58,0,0,1,256.41,193a.31.31,0,0,0,0-.56A23.71,23.71,0,0,1,241.5,170.49Z"/><path class="cls-30" d="M288.87,170.49a16.38,16.38,0,0,0,16.23,16.36,16.58,16.58,0,0,0,16.51-16.74A56.52,56.52,0,0,0,279,115.78a.31.31,0,0,0-.29.52A19.57,19.57,0,0,1,274,147.94a.31.31,0,0,0,0,.56A23.72,23.72,0,0,1,288.87,170.49Z"/><path class="cls-31" d="M264.59,146.2A16.39,16.39,0,0,0,281,130a16.58,16.58,0,0,0-16.74-16.51A56.51,56.51,0,0,0,209.89,156a.31.31,0,0,0,.51.3,19.58,19.58,0,0,1,31.67,4.81.28.28,0,0,0,.51,0A23.73,23.73,0,0,1,264.59,146.2Z"/><path class="cls-31" d="M264.59,193.57a16.39,16.39,0,0,0-16.37,16.23A16.59,16.59,0,0,0,265,226.31a56.52,56.52,0,0,0,54.33-42.58.31.31,0,0,0-.52-.29,19.57,19.57,0,0,1-31.64-4.77.31.31,0,0,0-.56,0A23.73,23.73,0,0,1,264.59,193.57Z"/><path class="cls-31" d="M240.91,169.89a16.39,16.39,0,0,0-16.23-16.37,16.58,16.58,0,0,0-16.51,16.74A56.51,56.51,0,0,0,251,224.64a.25.25,0,0,0,.24-.43,19.57,19.57,0,0,1,4.62-31.78.3.3,0,0,0,0-.55A23.72,23.72,0,0,1,240.91,169.89Z"/><path class="cls-31" d="M288.28,169.89a16.39,16.39,0,0,0,16.22,16.37A16.59,16.59,0,0,0,321,169.51a56.53,56.53,0,0,0-42.57-54.33.31.31,0,0,0-.3.52,19.57,19.57,0,0,1-4.77,31.64.31.31,0,0,0,0,.56A23.72,23.72,0,0,1,288.28,169.89Z"/><path class="cls-32" d="M264,145.61a16.39,16.39,0,0,0,16.37-16.23,16.58,16.58,0,0,0-16.74-16.51,56.52,56.52,0,0,0-54.33,42.58.31.31,0,0,0,.52.29,19.57,19.57,0,0,1,31.66,4.81.28.28,0,0,0,.52,0A23.73,23.73,0,0,1,264,145.61Z"/><path class="cls-32" d="M264,193a16.39,16.39,0,0,0-16.37,16.23,16.59,16.59,0,0,0,16.75,16.51,56.53,56.53,0,0,0,54.33-42.57.31.31,0,0,0-.52-.3,19.57,19.57,0,0,1-31.64-4.77.31.31,0,0,0-.56,0A23.71,23.71,0,0,1,264,193Z"/><path class="cls-32" d="M240.31,169.29a16.39,16.39,0,0,0-16.23-16.37,16.59,16.59,0,0,0-16.51,16.75,56.53,56.53,0,0,0,42.79,54.38.25.25,0,0,0,.23-.43,19.57,19.57,0,0,1,4.62-31.78.31.31,0,0,0,0-.56A23.73,23.73,0,0,1,240.31,169.29Z"/><path class="cls-32" d="M287.68,169.29a16.39,16.39,0,0,0,16.22,16.37,16.59,16.59,0,0,0,16.52-16.75,56.55,56.55,0,0,0-42.58-54.33.31.31,0,0,0-.29.52,19.59,19.59,0,0,1-4.78,31.65.3.3,0,0,0,0,.55A23.73,23.73,0,0,1,287.68,169.29Z"/><path class="cls-33" d="M263.4,145a16.38,16.38,0,0,0,16.36-16.23A16.58,16.58,0,0,0,263,112.27a56.52,56.52,0,0,0-54.33,42.58.31.31,0,0,0,.52.29A19.57,19.57,0,0,1,240.87,160a.29.29,0,0,0,.52,0A23.73,23.73,0,0,1,263.4,145Z"/><path class="cls-33" d="M263.4,192.38A16.38,16.38,0,0,0,247,208.6a16.58,16.58,0,0,0,16.74,16.51,56.53,56.53,0,0,0,54.33-42.57.31.31,0,0,0-.52-.3,19.57,19.57,0,0,1-31.64-4.77.31.31,0,0,0-.56,0A23.71,23.71,0,0,1,263.4,192.38Z"/><path class="cls-33" d="M239.71,168.69a16.39,16.39,0,0,0-16.23-16.37A16.6,16.6,0,0,0,207,169.07a56.55,56.55,0,0,0,42.79,54.38A.25.25,0,0,0,250,223a19.58,19.58,0,0,1,4.63-31.78.31.31,0,0,0,0-.56A23.73,23.73,0,0,1,239.71,168.69Z"/><path class="cls-33" d="M287.08,168.69a16.39,16.39,0,0,0,16.23,16.37,16.59,16.59,0,0,0,16.51-16.74A56.52,56.52,0,0,0,277.24,114a.31.31,0,0,0-.29.52,19.58,19.58,0,0,1-4.77,31.64.3.3,0,0,0,0,.55A23.74,23.74,0,0,1,287.08,168.69Z"/><path class="cls-34" d="M262.8,144.41a16.39,16.39,0,0,0,16.37-16.23,16.59,16.59,0,0,0-16.75-16.51,56.54,56.54,0,0,0-54.33,42.58.31.31,0,0,0,.52.29,19.59,19.59,0,0,1,31.67,4.82.28.28,0,0,0,.51,0A23.73,23.73,0,0,1,262.8,144.41Z"/><path class="cls-34" d="M262.8,191.78A16.39,16.39,0,0,0,246.43,208a16.59,16.59,0,0,0,16.74,16.51,56.53,56.53,0,0,0,54.33-42.58.31.31,0,0,0-.52-.29,19.58,19.58,0,0,1-31.64-4.77.3.3,0,0,0-.55,0A23.73,23.73,0,0,1,262.8,191.78Z"/><path class="cls-34" d="M239.11,168.1a16.38,16.38,0,0,0-16.22-16.37,16.58,16.58,0,0,0-16.51,16.74,56.51,56.51,0,0,0,42.78,54.38.25.25,0,0,0,.23-.43A19.58,19.58,0,0,1,254,190.64a.31.31,0,0,0,0-.56A23.71,23.71,0,0,1,239.11,168.1Z"/><path class="cls-34" d="M286.48,168.1a16.38,16.38,0,0,0,16.23,16.36,16.58,16.58,0,0,0,16.51-16.74,56.52,56.52,0,0,0-42.58-54.33.31.31,0,0,0-.29.52,19.57,19.57,0,0,1-4.77,31.64.31.31,0,0,0,0,.56A23.72,23.72,0,0,1,286.48,168.1Z"/><path class="cls-35" d="M262.2,143.81a16.39,16.39,0,0,0,16.37-16.22,16.58,16.58,0,0,0-16.74-16.51,56.51,56.51,0,0,0-54.33,42.58.31.31,0,0,0,.52.29,19.57,19.57,0,0,1,31.66,4.81.28.28,0,0,0,.51,0A23.73,23.73,0,0,1,262.2,143.81Z"/><path class="cls-35" d="M262.2,191.18a16.39,16.39,0,0,0-16.37,16.23,16.59,16.59,0,0,0,16.75,16.51,56.52,56.52,0,0,0,54.33-42.58.31.31,0,0,0-.52-.29,19.57,19.57,0,0,1-31.64-4.77.31.31,0,0,0-.56,0A23.73,23.73,0,0,1,262.2,191.18Z"/><path class="cls-35" d="M238.52,167.5a16.39,16.39,0,0,0-16.23-16.37,16.58,16.58,0,0,0-16.51,16.74,56.53,56.53,0,0,0,42.78,54.39.26.26,0,0,0,.24-.44A19.57,19.57,0,0,1,253.42,190a.3.3,0,0,0,0-.55A23.72,23.72,0,0,1,238.52,167.5Z"/><path class="cls-35" d="M285.89,167.5a16.39,16.39,0,0,0,16.22,16.37,16.59,16.59,0,0,0,16.51-16.75,56.53,56.53,0,0,0-42.57-54.33.31.31,0,0,0-.3.52A19.57,19.57,0,0,1,271,145a.31.31,0,0,0,0,.56A23.72,23.72,0,0,1,285.89,167.5Z"/><path class="cls-36" d="M261.6,143.22A16.39,16.39,0,0,0,278,127a16.58,16.58,0,0,0-16.74-16.51,56.52,56.52,0,0,0-54.33,42.58.31.31,0,0,0,.52.29,19.57,19.57,0,0,1,31.66,4.81.28.28,0,0,0,.52,0A23.73,23.73,0,0,1,261.6,143.22Z"/><path class="cls-36" d="M261.6,190.58a16.39,16.39,0,0,0-16.37,16.23A16.59,16.59,0,0,0,262,223.32a56.53,56.53,0,0,0,54.33-42.57.31.31,0,0,0-.52-.3,19.57,19.57,0,0,1-31.64-4.77.31.31,0,0,0-.56,0A23.71,23.71,0,0,1,261.6,190.58Z"/><path class="cls-36" d="M237.92,166.9a16.39,16.39,0,0,0-16.23-16.37,16.59,16.59,0,0,0-16.51,16.75A56.53,56.53,0,0,0,248,221.66a.25.25,0,0,0,.23-.43,19.57,19.57,0,0,1,4.62-31.78.31.31,0,0,0,0-.56A23.73,23.73,0,0,1,237.92,166.9Z"/><path class="cls-36" d="M285.29,166.9a16.39,16.39,0,0,0,16.22,16.37A16.59,16.59,0,0,0,318,166.52a56.55,56.55,0,0,0-42.58-54.33.31.31,0,0,0-.29.52,19.59,19.59,0,0,1-4.78,31.65.3.3,0,0,0,0,.55A23.73,23.73,0,0,1,285.29,166.9Z"/><path class="cls-37" d="M261,142.62a16.38,16.38,0,0,0,16.36-16.23,16.58,16.58,0,0,0-16.74-16.51,56.52,56.52,0,0,0-54.33,42.58.31.31,0,0,0,.52.29,19.57,19.57,0,0,1,31.66,4.82.29.29,0,0,0,.52,0A23.73,23.73,0,0,1,261,142.62Z"/><path class="cls-37" d="M261,190a16.38,16.38,0,0,0-16.37,16.22,16.58,16.58,0,0,0,16.74,16.51,56.53,56.53,0,0,0,54.33-42.57.31.31,0,0,0-.52-.3,19.57,19.57,0,0,1-31.64-4.77.31.31,0,0,0-.56,0A23.71,23.71,0,0,1,261,190Z"/><path class="cls-37" d="M237.32,166.3a16.39,16.39,0,0,0-16.23-16.37,16.6,16.6,0,0,0-16.51,16.75,56.55,56.55,0,0,0,42.79,54.38.25.25,0,0,0,.23-.43,19.58,19.58,0,0,1,4.63-31.78.31.31,0,0,0,0-.56A23.73,23.73,0,0,1,237.32,166.3Z"/><path class="cls-37" d="M284.69,166.3a16.39,16.39,0,0,0,16.23,16.37,16.59,16.59,0,0,0,16.51-16.74,56.52,56.52,0,0,0-42.58-54.33.31.31,0,0,0-.29.52,19.58,19.58,0,0,1-4.77,31.64.3.3,0,0,0,0,.55A23.74,23.74,0,0,1,284.69,166.3Z"/></g><path class="cls-9" d="M237.32,166.3a16.39,16.39,0,0,0-16.23-16.37,16.6,16.6,0,0,0-16.51,16.75,56.55,56.55,0,0,0,42.79,54.38.25.25,0,0,0,.23-.43,19.58,19.58,0,0,1,4.63-31.78.31.31,0,0,0,0-.56A23.73,23.73,0,0,1,237.32,166.3Z"/><path class="cls-9" d="M284.69,166.3a16.39,16.39,0,0,0,16.23,16.37,16.59,16.59,0,0,0,16.51-16.74,56.52,56.52,0,0,0-42.58-54.33.31.31,0,0,0-.29.52,19.58,19.58,0,0,1-4.77,31.64.3.3,0,0,0,0,.55A23.74,23.74,0,0,1,284.69,166.3Z"/><text class="cls-38" transform="translate(290.53 155.31)">A</text><text class="cls-38" transform="translate(219.65 188.88)">I</text><polyline class="cls-14" points="290.07 129.83 366.06 129.83 393.14 110.3"/><text class="cls-39" transform="translate(384.28 140.51)">A:<tspan class="cls-9" x="11.07" y="0">分析</tspan></text><text class="cls-40" transform="translate(359.62 152.51)">不是简单罗列数据<tspan x="6.64" y="8.1">纵横比较看变化</tspan></text><text class="cls-39" transform="translate(141.04 141.44)">M:<tspan class="cls-41" x="12.48" y="0">度量</tspan></text><text class="cls-40" transform="translate(141.04 153.44)">需求驱动量<tspan x="0" y="8.1">关注度收益</tspan><tspan x="0" y="16.2">寻求北极星指标</tspan></text><text class="cls-39" transform="translate(141.04 215.92)">I:<tspan class="cls-9" x="7.01" y="0">改进</tspan></text><polyline class="cls-14" points="282.79 204.86 364.15 204.86 393.14 185.33"/><text class="cls-39" transform="translate(384.9 207.95)">R:<tspan class="cls-9" x="10.22" y="0">回顾</tspan></text><text class="cls-13" transform="translate(366.26 219.96)">问题分析挖根因<tspan x="0" y="8.1">过程复盘重改进</tspan></text><path class="cls-42" d="M261,142.62a16.38,16.38,0,0,0,16.36-16.23,16.58,16.58,0,0,0-16.74-16.51,56.52,56.52,0,0,0-54.33,42.58.31.31,0,0,0,.52.29,19.57,19.57,0,0,1,31.66,4.82.29.29,0,0,0,.52,0A23.73,23.73,0,0,1,261,142.62Z"/><text class="cls-38" transform="translate(241.9 135.52)">M</text><circle class="cls-42" cx="142.34" cy="110.29" r="4.73"/><circle class="cls-9" cx="142.34" cy="184.46" r="4.73"/><circle class="cls-9" cx="393.14" cy="110.29" r="4.73"/><circle class="cls-42" cx="393.14" cy="184.46" r="4.73"/><path class="cls-42" d="M261,190a16.38,16.38,0,0,0-16.37,16.22,16.58,16.58,0,0,0,16.74,16.51,56.53,56.53,0,0,0,54.33-42.57.31.31,0,0,0-.52-.3,19.57,19.57,0,0,1-31.64-4.77.31.31,0,0,0-.56,0A23.71,23.71,0,0,1,261,190Z"/><text class="cls-38" transform="translate(270.96 206.66)">R</text><path class="cls-42" d="M252.68,167.19H248.6a.82.82,0,0,0-.82.81v8.16a.82.82,0,0,0,.82.81h4.08a.81.81,0,0,0,.81-.81V168A.81.81,0,0,0,252.68,167.19Zm-.82,8.15h-2.44v-6.52h2.44Z"/><path class="cls-42" d="M260.83,163.11h-4.07a.82.82,0,0,0-.82.81v12.24a.82.82,0,0,0,.82.81h4.07a.81.81,0,0,0,.82-.81V163.92A.81.81,0,0,0,260.83,163.11ZM260,175.34h-2.45v-10.6H260Z"/><path class="cls-42" d="M269,159h-4.08a.81.81,0,0,0-.81.82v16.31a.81.81,0,0,0,.81.81H269a.82.82,0,0,0,.82-.81V159.85A.82.82,0,0,0,269,159Zm-.81,16.31h-2.45V160.66h2.45Z"/><path class="cls-42" d="M263.19,155.63a.83.83,0,0,0-.12-.25s0,0,0,0l0,0a.86.86,0,0,0-.2-.18,1.08,1.08,0,0,0-.3-.11l-4-.62a.83.83,0,0,0-.93.68.82.82,0,0,0,.68.94l2.08.32-10.5,7.7a.83.83,0,0,0-.18,1.14.81.81,0,0,0,.66.33.88.88,0,0,0,.49-.15l10.5-7.71-.32,2.09a.82.82,0,0,0,.68.93h.13a.81.81,0,0,0,.8-.7l.62-4A.81.81,0,0,0,263.19,155.63Z"/><text class="cls-43" transform="translate(230.92 251.65)">-图：MARI方法-</text></g></g></svg>